<svg version="1.1" id="Layer_1" xmlns="http://www.w3.org/2000/svg" xmlns:xlink="http://www.w3.org/1999/xlink" x="0px" y="0px"
	 width="100%" viewBox="0 0 1024 1024" enable-background="new 0 0 1024 1024" xml:space="preserve">
<path fill="#000000" opacity="1.000000" stroke="none" 
	d="
M332.761658,648.273743 
	C363.657318,691.181641 400.750793,727.144165 444.302429,756.538940 
	C468.665955,772.982788 494.209137,787.256470 520.594666,800.125366 
	C523.611755,801.596924 525.836060,800.927795 528.496399,799.628174 
	C573.016418,777.877930 614.524292,751.507568 652.031677,719.030640 
	C686.637390,689.066162 714.644897,653.704468 737.397644,614.082458 
	C738.917908,611.434998 739.701538,608.694702 739.697998,605.553650 
	C739.626953,542.898682 739.579163,480.243439 739.735046,417.588806 
	C739.747925,412.401245 738.201843,409.449890 733.431824,407.198639 
	C721.833374,401.724731 710.399536,395.903046 698.347656,391.455353 
	C695.988403,390.584717 694.228577,389.487946 693.794678,386.774475 
	C691.109375,369.982330 684.958679,354.397278 677.186340,339.381927 
	C676.745667,338.530518 676.133850,337.645905 676.989441,336.239777 
	C682.703979,337.556122 688.045471,340.173431 693.461792,342.524506 
	C720.986145,354.472107 747.988586,367.450012 773.683289,383.038696 
	C776.295349,384.623383 777.365112,386.287537 777.399475,389.330963 
	C778.285400,467.640015 778.286987,545.948608 777.554382,624.258667 
	C777.529724,626.900269 776.811157,629.054626 775.524658,631.273926 
	C750.596375,674.277954 719.673950,712.464844 682.878540,745.827576 
	C646.264282,779.026001 605.175293,805.830811 561.821533,829.299255 
	C551.569214,834.848877 541.175415,840.141968 531.007446,845.839966 
	C526.982544,848.095398 523.739563,848.148010 519.479248,845.988098 
	C484.094055,828.048584 449.094543,809.459656 416.551697,786.618225 
	C365.537781,750.812134 322.487732,707.214417 288.186646,655.078857 
	C283.058929,647.285034 277.779968,639.596008 273.202606,631.450806 
	C271.527130,628.469299 270.681122,625.449585 270.684143,621.970703 
	C270.750916,544.818420 270.772369,467.666016 270.644043,390.513885 
	C270.636749,386.111115 271.997284,383.446594 275.803345,381.313354 
	C305.471985,364.683899 335.605164,349.045288 367.645416,337.385651 
	C369.141083,336.841370 370.578979,335.759918 372.391602,336.444702 
	C373.011627,338.497314 371.717529,340.002655 370.897552,341.524719 
	C363.565033,355.135620 358.808929,369.640198 355.886780,384.764587 
	C355.320587,387.694946 354.107635,389.278839 351.112854,390.259338 
	C337.760864,394.630737 325.482117,401.383850 313.068848,407.841827 
	C309.466705,409.715851 309.006409,412.505615 308.963196,416.083923 
	C308.375641,464.729279 308.599701,513.373596 308.931885,562.018799 
	C309.035339,577.168945 308.975342,592.320801 308.883667,607.471191 
	C308.863708,610.769348 309.709961,613.622192 311.462494,616.407471 
	C318.206360,627.125122 325.207153,637.666992 332.761658,648.273743 
z"/>
<path fill="#000000" opacity="1.000000" stroke="none" 
	d="
M415.391418,490.651794 
	C415.507507,500.013275 419.812195,505.200806 428.080566,509.080750 
	C447.063873,517.988586 465.467102,528.125916 484.229797,537.516418 
	C487.658356,539.232361 488.016846,541.632446 487.981964,544.784424 
	C487.706970,569.607178 487.958130,594.430237 487.651215,619.256836 
	C487.276520,649.563904 487.797089,679.882019 487.923431,710.195312 
	C487.943359,714.978821 487.926178,719.762390 487.926178,724.377808 
	C485.271881,725.086975 484.474762,723.544739 483.472565,722.599609 
	C471.596161,711.399475 459.778015,700.137512 447.883850,688.956360 
	C445.844635,687.039368 444.653625,685.075378 444.556335,682.092407 
	C443.567566,651.775269 443.923126,621.453064 444.106171,591.132874 
	C444.145355,584.644775 444.663086,578.164062 444.073853,571.672668 
	C443.888153,569.626770 443.633179,567.851501 441.705719,566.503174 
	C429.557556,558.005005 417.486450,549.396667 405.359192,540.868408 
	C404.327332,540.142761 403.071167,539.736023 400.979919,538.728638 
	C403.521454,545.781494 407.356232,550.982849 411.119659,556.124573 
	C417.118774,564.320679 423.458588,572.269043 429.728455,580.264038 
	C431.325073,582.299988 432.360138,584.350708 432.353546,587.049683 
	C432.286774,614.378296 432.305878,641.707031 432.281006,669.035767 
	C432.279968,670.166748 432.460114,671.377380 431.572021,672.387207 
	C429.908325,673.045166 429.157104,671.625488 428.336334,670.740723 
	C416.096985,657.547363 404.078003,644.162170 393.216156,629.786377 
	C391.789001,627.897583 390.802979,625.966309 390.816528,623.416992 
	C390.920868,603.768066 390.910980,584.118469 390.911987,564.469116 
	C390.913849,528.143372 390.851776,491.817474 390.962799,455.492096 
	C390.974121,451.783875 390.075928,449.023956 386.854126,447.102417 
	C378.718353,442.250061 376.314911,435.620026 376.185455,425.723969 
	C375.775909,394.422241 381.862427,365.108887 398.311951,338.369629 
	C414.128510,312.659332 435.355438,292.682098 462.975433,279.922485 
	C464.727112,279.113220 466.491699,277.905396 469.214233,278.730865 
	C469.214233,284.694275 469.279541,290.815521 469.182068,296.934174 
	C469.143097,299.380737 466.886414,299.968719 465.198151,300.961609 
	C435.268768,318.563263 414.169525,343.344543 403.972717,376.817566 
	C401.992554,383.317871 400.903259,390.093781 399.492676,396.761505 
	C398.808044,399.997894 399.723328,402.322968 402.888611,404.176788 
	C419.721313,414.035126 437.244934,422.568787 454.572357,431.477142 
	C466.570465,437.645538 478.644165,443.666992 490.691895,449.738678 
	C491.851044,450.322845 492.961365,451.202545 494.476135,450.695129 
	C496.011261,448.878296 495.632660,446.636658 495.632965,444.516327 
	C495.642761,379.864441 495.673889,315.212433 495.521271,250.560867 
	C495.511200,246.289749 496.636078,244.985779 500.937866,244.442673 
	C517.576782,242.342010 534.130676,242.879135 550.711975,244.793930 
	C553.303101,245.093155 554.457764,246.087524 554.430420,248.912109 
	C554.065308,286.731384 554.937744,324.560547 553.477783,362.371887 
	C553.317078,366.532837 553.388245,370.702393 553.324463,374.867554 
	C553.003235,395.852631 552.685303,416.837799 552.316650,437.822052 
	C552.292908,439.173462 552.902100,440.818665 551.228943,441.837646 
	C549.437561,440.879547 550.059631,439.215454 550.020020,437.845459 
	C549.208313,409.710602 548.499878,381.572571 547.623840,353.439758 
	C547.064331,335.468506 546.209229,317.506531 545.622253,299.535980 
	C545.492981,295.579193 544.245117,292.918304 540.199158,291.691193 
	C536.864136,290.679657 533.685303,289.157837 530.425476,287.892334 
	C527.763245,286.858826 526.208984,287.536896 526.266052,290.655731 
	C526.296509,292.321442 526.264465,293.988251 526.263733,295.654572 
	C526.224487,385.805634 526.186951,475.956726 526.135986,566.107788 
	C526.135071,567.731323 525.972961,569.354675 525.897949,570.755554 
	C523.879150,571.748657 523.012878,570.472778 522.042725,569.670898 
	C503.717865,554.526062 503.681335,554.435059 503.687317,530.596008 
	C503.689514,521.930786 503.601685,513.264404 503.728943,504.601105 
	C503.770752,501.754089 502.869751,499.970001 500.218719,498.711670 
	C472.536682,485.571869 444.896362,472.344299 417.228668,459.174164 
	C415.926270,458.554199 414.629913,457.617645 412.457733,458.232300 
	C413.421143,468.839844 414.391388,479.522644 415.391418,490.651794 
z"/>
<path fill="#000000" opacity="1.000000" stroke="none" 
	d="
M563.267700,725.001099 
	C560.889343,724.002869 561.807251,722.104675 561.808105,720.608276 
	C561.840515,662.447571 561.980408,604.286865 561.923401,546.126282 
	C561.918457,541.124207 563.611450,538.414246 568.135498,536.155884 
	C587.057739,526.709778 605.758362,516.820435 624.569885,507.151306 
	C630.120850,504.298096 634.901184,500.810547 638.451111,495.414215 
	C641.979797,490.050232 646.365051,485.249695 650.327515,480.261444 
	C652.901123,481.558014 652.140259,483.466797 652.148926,484.944336 
	C652.234192,499.442352 652.098450,513.942566 652.300293,528.438354 
	C652.350769,532.061157 650.345764,533.835938 647.916016,535.679749 
	C635.044250,545.447205 622.256958,555.327881 609.281555,564.955200 
	C605.754272,567.572327 604.163757,570.387390 604.190979,574.933289 
	C604.385498,607.428955 603.749512,639.941467 604.639648,672.414062 
	C604.914795,682.451538 602.535095,689.054138 594.825867,695.436646 
	C583.821167,704.547119 573.961853,715.041016 563.267700,725.001099 
z"/>
<path fill="#000000" opacity="1.000000" stroke="none" 
	d="
M581.015503,322.063782 
	C582.081116,307.540222 581.281250,293.440826 581.749512,279.403442 
	C584.853821,279.092346 586.628418,280.515198 588.457764,281.521667 
	C619.570618,298.638885 643.921631,322.113037 657.702942,355.467712 
	C661.597412,364.893341 661.539185,364.836487 653.469360,370.647980 
	C631.846924,386.219421 609.930847,401.339142 586.756714,414.550415 
	C585.343262,415.356201 584.055542,416.530670 581.010803,415.948120 
	C581.010803,384.921570 581.010803,353.737732 581.015503,322.063782 
M624.332275,352.994263 
	C625.212830,354.951630 626.386108,356.019470 628.519714,354.460754 
	C629.186829,353.973358 629.934082,353.595154 630.647888,353.172333 
	C637.457336,349.138641 637.515808,349.104889 633.471924,342.201508 
	C628.506897,333.725769 622.752625,325.840363 615.893188,318.759949 
	C613.354065,316.138977 611.331848,314.683502 608.266541,318.223541 
	C605.697571,321.190338 602.605103,323.231323 606.958557,327.460449 
	C614.272522,334.565430 619.767273,343.085083 624.332275,352.994263 
z"/>
<path fill="#000000" opacity="1.000000" stroke="none" 
	d="
M628.377625,412.344696 
	C642.349060,403.053131 656.021729,393.968292 670.765930,384.171539 
	C671.252502,390.631134 671.876404,395.812256 671.984558,401.004120 
	C672.199463,411.329987 672.158813,421.661774 672.167664,431.991150 
	C672.172424,437.561218 669.599670,440.520355 662.810425,442.330688 
	C662.810425,428.470123 662.810425,414.783569 662.810425,400.548767 
	C658.382874,401.781921 655.706299,404.355560 652.702942,406.266846 
	C648.069763,409.215302 643.731873,412.646851 639.002136,415.418518 
	C635.410889,417.523010 633.953613,420.107208 634.070984,424.290894 
	C634.337219,433.780273 634.114868,443.282410 634.220215,452.777924 
	C634.253113,455.743652 633.376465,457.719360 630.543945,459.140472 
	C605.991760,471.458374 581.564514,484.027985 556.576477,495.457855 
	C555.554077,495.925507 554.620361,496.750977 553.301086,496.321503 
	C552.715820,494.659271 554.260376,494.437439 555.080505,493.879059 
	C562.099182,489.100159 569.120422,484.322968 576.222534,479.669830 
	C578.706970,478.042145 579.759094,476.035675 579.709595,473.036072 
	C579.569336,464.541473 579.906372,456.033417 579.569824,447.549927 
	C579.394043,443.120148 580.977051,440.680359 584.781311,438.473083 
	C599.329590,430.032013 613.664429,421.223053 628.377625,412.344696 
z"/>
<path fill="#000000" opacity="1.000000" stroke="none" 
	d="
M339.194885,592.383057 
	C336.028809,598.602722 330.266968,601.197021 325.556183,605.087891 
	C323.287201,602.663696 323.920105,600.392639 323.917297,598.314270 
	C323.843628,543.700867 323.914459,489.086914 323.620605,434.474823 
	C323.588623,428.533813 325.221527,425.069885 330.865112,423.418213 
	C333.372894,422.684296 335.569489,420.954651 339.233154,420.916290 
	C339.233154,477.999207 339.233154,534.975525 339.194885,592.383057 
z"/>
<path fill="#000000" opacity="1.000000" stroke="none" 
	d="
M724.333862,549.000122 
	C724.334167,568.274048 724.334167,587.047913 724.334167,606.038330 
	C715.261780,602.400513 708.900024,593.218567 708.896118,584.329773 
	C708.873535,532.386353 708.847046,480.442932 708.833740,428.499512 
	C708.831787,420.766449 708.995789,421.125549 716.343628,423.659149 
	C723.086426,425.984100 724.554260,429.916321 724.494324,436.623169 
	C724.160950,473.912964 724.333923,511.207275 724.333862,549.000122 
z"/>
<path fill="#000000" opacity="1.000000" stroke="none" 
	d="
M667.829102,490.999939 
	C667.840637,482.175629 667.973755,473.848846 667.807007,465.528107 
	C667.732727,461.821686 669.155334,460.414581 672.797913,460.633331 
	C676.115784,460.832611 679.463928,460.830536 682.782227,460.635925 
	C686.335571,460.427551 687.365784,462.027557 687.356079,465.375549 
	C687.275574,493.178955 687.268066,520.982788 687.363831,548.786072 
	C687.374573,551.912720 686.276367,553.744141 683.441528,554.905151 
	C678.567688,556.901245 673.764404,559.069641 667.828552,561.644043 
	C667.828552,537.560181 667.828552,514.530090 667.829102,490.999939 
z"/>
<path fill="#000000" opacity="1.000000" stroke="none" 
	d="
M372.937317,460.693420 
	C380.294006,460.799774 380.326782,460.799744 380.331329,467.563782 
	C380.350800,496.672485 380.353027,525.781189 380.345856,554.889893 
	C380.345459,556.525513 380.204681,558.161133 380.092438,560.594055 
	C373.613495,558.893372 367.992310,556.386475 362.716766,553.102600 
	C361.301758,552.221863 361.689972,550.386047 361.688812,548.920227 
	C361.666626,521.142151 361.714325,493.363922 361.606079,465.586243 
	C361.591949,461.961761 362.740906,460.327209 366.464935,460.660736 
	C368.445129,460.838135 370.454193,460.693115 372.937317,460.693420 
z"/>
<path fill="#000000" opacity="1.000000" stroke="none" 
	d="
M376.695435,652.335266 
	C390.134491,669.070740 404.779053,684.101501 422.557953,695.613281 
	C428.187347,699.258301 430.913086,703.126770 429.394073,709.698364 
	C429.138306,710.804871 429.162354,711.976135 429.039398,713.309387 
	C426.347504,713.884888 424.397797,712.454712 422.424347,711.433411 
	C398.685852,699.148804 380.400848,680.598572 363.735870,660.204407 
	C358.454529,653.741272 353.823517,646.835571 349.599243,639.632690 
	C348.019348,636.938721 348.181549,635.187622 350.915100,633.454773 
	C353.835083,631.603760 356.523376,629.387329 359.615631,627.107178 
	C365.198853,635.652832 370.159271,644.323547 376.695435,652.335266 
z"/>
<path fill="#000000" opacity="1.000000" stroke="none" 
	d="
M634.813843,643.833374 
	C635.369629,643.184326 635.712708,642.819519 636.018433,642.425720 
	C649.532166,625.019836 649.341675,625.008057 650.740540,601.888916 
	C651.814270,584.142944 653.440125,566.430420 654.844116,548.704834 
	C654.906494,547.917969 655.203430,547.149780 655.386841,546.390686 
	C657.493530,546.467468 657.124512,547.938660 657.101318,548.935425 
	C656.507812,574.397400 658.319824,599.819519 658.367615,625.270996 
	C658.372681,627.972351 657.535095,630.059998 655.702332,631.968567 
	C641.301941,646.964294 626.956360,662.012634 612.534363,676.987488 
	C610.958984,678.623230 609.378052,680.390259 606.193298,680.472046 
	C615.656799,668.349426 625.120300,656.226807 634.813843,643.833374 
z"/>
<path fill="#000000" opacity="1.000000" stroke="none" 
	d="
M667.625488,657.644653 
	C675.002258,648.984924 681.242493,639.941711 686.790466,630.446350 
	C688.840637,626.937439 690.686340,626.825623 693.832764,629.052063 
	C702.479797,635.170837 702.554077,635.129456 696.747192,644.126892 
	C690.130188,654.379761 682.144287,663.517883 673.993958,672.553284 
	C670.978516,675.896240 668.415588,676.779785 664.927124,673.443359 
	C663.157593,671.750916 660.562744,671.029541 658.854614,668.573730 
	C660.905640,664.463135 664.686951,661.594238 667.625488,657.644653 
z"/>
</svg>